<mxfile host="www.draw.io" modified="2019-10-19T00:31:04.434Z" agent="Mozilla/5.0 (Macintosh; Intel Mac OS X 10_15_0) AppleWebKit/537.36 (KHTML, like Gecko) Chrome/77.0.3865.90 Safari/537.36" etag="YXq19R4WWbKuLoW2Gx7b" version="12.1.3" type="github" pages="1">
  <diagram id="-5e9INOEe2Mh9xBuiZy8" name="Page-1">
    <mxGraphModel dx="1172" dy="727" grid="1" gridSize="10" guides="1" tooltips="1" connect="1" arrows="1" fold="1" page="1" pageScale="1" pageWidth="850" pageHeight="1100" math="0" shadow="0">
      <root>
        <mxCell id="0"/>
        <mxCell id="1" parent="0"/>
        <mxCell id="1_YJrsmFA2tsumIKJSaq-1" value="menu_items" style="swimlane;fontStyle=0;childLayout=stackLayout;horizontal=1;startSize=26;fillColor=#e0e0e0;horizontalStack=0;resizeParent=1;resizeParentMax=0;resizeLast=0;collapsible=1;marginBottom=0;swimlaneFillColor=#ffffff;align=center;fontSize=14;" parent="1" vertex="1">
          <mxGeometry x="10" y="130" width="160" height="160" as="geometry"/>
        </mxCell>
        <mxCell id="1_YJrsmFA2tsumIKJSaq-2" value="id" style="shape=partialRectangle;top=0;left=0;right=0;bottom=1;align=left;verticalAlign=middle;fillColor=none;spacingLeft=34;spacingRight=4;overflow=hidden;rotatable=0;points=[[0,0.5],[1,0.5]];portConstraint=eastwest;dropTarget=0;fontStyle=5;fontSize=12;" parent="1_YJrsmFA2tsumIKJSaq-1" vertex="1">
          <mxGeometry y="26" width="160" height="30" as="geometry"/>
        </mxCell>
        <mxCell id="1_YJrsmFA2tsumIKJSaq-3" value="PK" style="shape=partialRectangle;top=0;left=0;bottom=0;fillColor=none;align=left;verticalAlign=middle;spacingLeft=4;spacingRight=4;overflow=hidden;rotatable=0;points=[];portConstraint=eastwest;part=1;fontSize=12;" parent="1_YJrsmFA2tsumIKJSaq-2" vertex="1" connectable="0">
          <mxGeometry width="30" height="30" as="geometry"/>
        </mxCell>
        <mxCell id="1_YJrsmFA2tsumIKJSaq-4" value="menu_item_names" style="shape=partialRectangle;top=0;left=0;right=0;bottom=0;align=left;verticalAlign=top;fillColor=none;spacingLeft=34;spacingRight=4;overflow=hidden;rotatable=0;points=[[0,0.5],[1,0.5]];portConstraint=eastwest;dropTarget=0;fontSize=12;" parent="1_YJrsmFA2tsumIKJSaq-1" vertex="1">
          <mxGeometry y="56" width="160" height="26" as="geometry"/>
        </mxCell>
        <mxCell id="1_YJrsmFA2tsumIKJSaq-5" value="" style="shape=partialRectangle;top=0;left=0;bottom=0;fillColor=none;align=left;verticalAlign=top;spacingLeft=4;spacingRight=4;overflow=hidden;rotatable=0;points=[];portConstraint=eastwest;part=1;fontSize=12;" parent="1_YJrsmFA2tsumIKJSaq-4" vertex="1" connectable="0">
          <mxGeometry width="30" height="26" as="geometry"/>
        </mxCell>
        <mxCell id="1_YJrsmFA2tsumIKJSaq-6" value="descirption" style="shape=partialRectangle;top=0;left=0;right=0;bottom=0;align=left;verticalAlign=top;fillColor=none;spacingLeft=34;spacingRight=4;overflow=hidden;rotatable=0;points=[[0,0.5],[1,0.5]];portConstraint=eastwest;dropTarget=0;fontSize=12;" parent="1_YJrsmFA2tsumIKJSaq-1" vertex="1">
          <mxGeometry y="82" width="160" height="26" as="geometry"/>
        </mxCell>
        <mxCell id="1_YJrsmFA2tsumIKJSaq-7" value="" style="shape=partialRectangle;top=0;left=0;bottom=0;fillColor=none;align=left;verticalAlign=top;spacingLeft=4;spacingRight=4;overflow=hidden;rotatable=0;points=[];portConstraint=eastwest;part=1;fontSize=12;" parent="1_YJrsmFA2tsumIKJSaq-6" vertex="1" connectable="0">
          <mxGeometry width="30" height="26" as="geometry"/>
        </mxCell>
        <mxCell id="1_YJrsmFA2tsumIKJSaq-8" value="duration (stretch)" style="shape=partialRectangle;top=0;left=0;right=0;bottom=0;align=left;verticalAlign=top;fillColor=none;spacingLeft=34;spacingRight=4;overflow=hidden;rotatable=0;points=[[0,0.5],[1,0.5]];portConstraint=eastwest;dropTarget=0;fontSize=12;" parent="1_YJrsmFA2tsumIKJSaq-1" vertex="1">
          <mxGeometry y="108" width="160" height="26" as="geometry"/>
        </mxCell>
        <mxCell id="1_YJrsmFA2tsumIKJSaq-9" value="" style="shape=partialRectangle;top=0;left=0;bottom=0;fillColor=none;align=left;verticalAlign=top;spacingLeft=4;spacingRight=4;overflow=hidden;rotatable=0;points=[];portConstraint=eastwest;part=1;fontSize=12;" parent="1_YJrsmFA2tsumIKJSaq-8" vertex="1" connectable="0">
          <mxGeometry width="30" height="26" as="geometry"/>
        </mxCell>
        <mxCell id="1_YJrsmFA2tsumIKJSaq-55" value="price" style="shape=partialRectangle;top=0;left=0;right=0;bottom=0;align=left;verticalAlign=top;fillColor=none;spacingLeft=34;spacingRight=4;overflow=hidden;rotatable=0;points=[[0,0.5],[1,0.5]];portConstraint=eastwest;dropTarget=0;fontSize=12;" parent="1_YJrsmFA2tsumIKJSaq-1" vertex="1">
          <mxGeometry y="134" width="160" height="26" as="geometry"/>
        </mxCell>
        <mxCell id="1_YJrsmFA2tsumIKJSaq-56" value="" style="shape=partialRectangle;top=0;left=0;bottom=0;fillColor=none;align=left;verticalAlign=top;spacingLeft=4;spacingRight=4;overflow=hidden;rotatable=0;points=[];portConstraint=eastwest;part=1;fontSize=12;" parent="1_YJrsmFA2tsumIKJSaq-55" vertex="1" connectable="0">
          <mxGeometry width="30" height="26" as="geometry"/>
        </mxCell>
        <mxCell id="1_YJrsmFA2tsumIKJSaq-12" value="line_items" style="swimlane;fontStyle=0;childLayout=stackLayout;horizontal=1;startSize=26;fillColor=#e0e0e0;horizontalStack=0;resizeParent=1;resizeParentMax=0;resizeLast=0;collapsible=1;marginBottom=0;swimlaneFillColor=#ffffff;align=center;fontSize=14;" parent="1" vertex="1">
          <mxGeometry x="350" y="302" width="160" height="138" as="geometry"/>
        </mxCell>
        <mxCell id="1_YJrsmFA2tsumIKJSaq-13" value="id" style="shape=partialRectangle;top=0;left=0;right=0;bottom=1;align=left;verticalAlign=middle;fillColor=none;spacingLeft=34;spacingRight=4;overflow=hidden;rotatable=0;points=[[0,0.5],[1,0.5]];portConstraint=eastwest;dropTarget=0;fontStyle=5;fontSize=12;" parent="1_YJrsmFA2tsumIKJSaq-12" vertex="1">
          <mxGeometry y="26" width="160" height="30" as="geometry"/>
        </mxCell>
        <mxCell id="1_YJrsmFA2tsumIKJSaq-14" value="PK" style="shape=partialRectangle;top=0;left=0;bottom=0;fillColor=none;align=left;verticalAlign=middle;spacingLeft=4;spacingRight=4;overflow=hidden;rotatable=0;points=[];portConstraint=eastwest;part=1;fontSize=12;" parent="1_YJrsmFA2tsumIKJSaq-13" vertex="1" connectable="0">
          <mxGeometry width="30" height="30" as="geometry"/>
        </mxCell>
        <mxCell id="1_YJrsmFA2tsumIKJSaq-15" value="menu_item_id" style="shape=partialRectangle;top=0;left=0;right=0;bottom=0;align=left;verticalAlign=top;fillColor=none;spacingLeft=34;spacingRight=4;overflow=hidden;rotatable=0;points=[[0,0.5],[1,0.5]];portConstraint=eastwest;dropTarget=0;fontSize=12;" parent="1_YJrsmFA2tsumIKJSaq-12" vertex="1">
          <mxGeometry y="56" width="160" height="26" as="geometry"/>
        </mxCell>
        <mxCell id="1_YJrsmFA2tsumIKJSaq-16" value="FK" style="shape=partialRectangle;top=0;left=0;bottom=0;fillColor=none;align=left;verticalAlign=top;spacingLeft=4;spacingRight=4;overflow=hidden;rotatable=0;points=[];portConstraint=eastwest;part=1;fontSize=12;" parent="1_YJrsmFA2tsumIKJSaq-15" vertex="1" connectable="0">
          <mxGeometry width="30" height="26" as="geometry"/>
        </mxCell>
        <mxCell id="1_YJrsmFA2tsumIKJSaq-17" value="order_id" style="shape=partialRectangle;top=0;left=0;right=0;bottom=0;align=left;verticalAlign=top;fillColor=none;spacingLeft=34;spacingRight=4;overflow=hidden;rotatable=0;points=[[0,0.5],[1,0.5]];portConstraint=eastwest;dropTarget=0;fontSize=12;" parent="1_YJrsmFA2tsumIKJSaq-12" vertex="1">
          <mxGeometry y="82" width="160" height="28" as="geometry"/>
        </mxCell>
        <mxCell id="1_YJrsmFA2tsumIKJSaq-18" value="FK" style="shape=partialRectangle;top=0;left=0;bottom=0;fillColor=none;align=left;verticalAlign=top;spacingLeft=4;spacingRight=4;overflow=hidden;rotatable=0;points=[];portConstraint=eastwest;part=1;fontSize=12;" parent="1_YJrsmFA2tsumIKJSaq-17" vertex="1" connectable="0">
          <mxGeometry width="30" height="28" as="geometry"/>
        </mxCell>
        <mxCell id="1_YJrsmFA2tsumIKJSaq-57" value="quantity" style="shape=partialRectangle;top=0;left=0;right=0;bottom=0;align=left;verticalAlign=top;fillColor=none;spacingLeft=34;spacingRight=4;overflow=hidden;rotatable=0;points=[[0,0.5],[1,0.5]];portConstraint=eastwest;dropTarget=0;fontSize=12;" parent="1_YJrsmFA2tsumIKJSaq-12" vertex="1">
          <mxGeometry y="110" width="160" height="28" as="geometry"/>
        </mxCell>
        <mxCell id="1_YJrsmFA2tsumIKJSaq-58" value="" style="shape=partialRectangle;top=0;left=0;bottom=0;fillColor=none;align=left;verticalAlign=top;spacingLeft=4;spacingRight=4;overflow=hidden;rotatable=0;points=[];portConstraint=eastwest;part=1;fontSize=12;" parent="1_YJrsmFA2tsumIKJSaq-57" vertex="1" connectable="0">
          <mxGeometry width="30" height="28" as="geometry"/>
        </mxCell>
        <mxCell id="1_YJrsmFA2tsumIKJSaq-23" value="" style="edgeStyle=entityRelationEdgeStyle;fontSize=12;html=1;endArrow=ERmany;entryX=0;entryY=0.5;entryDx=0;entryDy=0;exitX=1;exitY=0.5;exitDx=0;exitDy=0;" parent="1" source="1_YJrsmFA2tsumIKJSaq-2" target="1_YJrsmFA2tsumIKJSaq-15" edge="1">
          <mxGeometry width="100" height="100" relative="1" as="geometry">
            <mxPoint x="10" y="400" as="sourcePoint"/>
            <mxPoint x="110" y="300" as="targetPoint"/>
          </mxGeometry>
        </mxCell>
        <mxCell id="1_YJrsmFA2tsumIKJSaq-24" value="" style="endArrow=classic;html=1;exitX=1.013;exitY=0.929;exitDx=0;exitDy=0;exitPerimeter=0;" parent="1" edge="1">
          <mxGeometry width="50" height="50" relative="1" as="geometry">
            <mxPoint x="172.07999999999993" y="620.012" as="sourcePoint"/>
            <mxPoint x="300" y="726" as="targetPoint"/>
          </mxGeometry>
        </mxCell>
        <mxCell id="1_YJrsmFA2tsumIKJSaq-25" value="Magically comes from SMS" style="strokeWidth=2;rounded=1;arcSize=10;whiteSpace=wrap;html=1;align=center;fontSize=14;" parent="1" vertex="1">
          <mxGeometry x="300" y="700" width="100" height="100" as="geometry"/>
        </mxCell>
        <mxCell id="1_YJrsmFA2tsumIKJSaq-48" value="Stretch Ideas&amp;nbsp;&lt;br&gt;Reporting. Most popular item in a time period. (Tableau or PowerBi)&lt;br&gt;location/contact us page&lt;br&gt;Bill divider&lt;br&gt;Calculate taxes&lt;br&gt;suggested tip&lt;br&gt;Prevent customers from placing orders outside of business hours.&lt;br&gt;config interface&lt;br&gt;capture user information&lt;br&gt;user cookies&lt;br&gt;Gratuity added for orders over $80&lt;br&gt;Password validation&lt;br&gt;User login after X amount of order X+1 order is off." style="whiteSpace=wrap;html=1;aspect=fixed;" parent="1" vertex="1">
          <mxGeometry x="540" y="490" width="250" height="250" as="geometry"/>
        </mxCell>
        <mxCell id="1_YJrsmFA2tsumIKJSaq-59" value="orders" style="swimlane;fontStyle=0;childLayout=stackLayout;horizontal=1;startSize=26;fillColor=#e0e0e0;horizontalStack=0;resizeParent=1;resizeParentMax=0;resizeLast=0;collapsible=1;marginBottom=0;swimlaneFillColor=#ffffff;align=center;fontSize=14;" parent="1" vertex="1">
          <mxGeometry x="10" y="440" width="160" height="168" as="geometry"/>
        </mxCell>
        <mxCell id="1_YJrsmFA2tsumIKJSaq-60" value="id" style="shape=partialRectangle;top=0;left=0;right=0;bottom=1;align=left;verticalAlign=middle;fillColor=none;spacingLeft=34;spacingRight=4;overflow=hidden;rotatable=0;points=[[0,0.5],[1,0.5]];portConstraint=eastwest;dropTarget=0;fontStyle=5;fontSize=12;" parent="1_YJrsmFA2tsumIKJSaq-59" vertex="1">
          <mxGeometry y="26" width="160" height="30" as="geometry"/>
        </mxCell>
        <mxCell id="1_YJrsmFA2tsumIKJSaq-61" value="PK" style="shape=partialRectangle;top=0;left=0;bottom=0;fillColor=none;align=left;verticalAlign=middle;spacingLeft=4;spacingRight=4;overflow=hidden;rotatable=0;points=[];portConstraint=eastwest;part=1;fontSize=12;" parent="1_YJrsmFA2tsumIKJSaq-60" vertex="1" connectable="0">
          <mxGeometry width="30" height="30" as="geometry"/>
        </mxCell>
        <mxCell id="1_YJrsmFA2tsumIKJSaq-70" value="customer_phone" style="shape=partialRectangle;top=0;left=0;right=0;bottom=0;align=left;verticalAlign=top;fillColor=none;spacingLeft=34;spacingRight=4;overflow=hidden;rotatable=0;points=[[0,0.5],[1,0.5]];portConstraint=eastwest;dropTarget=0;fontSize=12;" parent="1_YJrsmFA2tsumIKJSaq-59" vertex="1">
          <mxGeometry y="56" width="160" height="28" as="geometry"/>
        </mxCell>
        <mxCell id="1_YJrsmFA2tsumIKJSaq-71" value="" style="shape=partialRectangle;top=0;left=0;bottom=0;fillColor=none;align=left;verticalAlign=top;spacingLeft=4;spacingRight=4;overflow=hidden;rotatable=0;points=[];portConstraint=eastwest;part=1;fontSize=12;" parent="1_YJrsmFA2tsumIKJSaq-70" vertex="1" connectable="0">
          <mxGeometry width="30" height="28" as="geometry"/>
        </mxCell>
        <mxCell id="1_YJrsmFA2tsumIKJSaq-74" value="ordered_at" style="shape=partialRectangle;top=0;left=0;right=0;bottom=0;align=left;verticalAlign=top;fillColor=none;spacingLeft=34;spacingRight=4;overflow=hidden;rotatable=0;points=[[0,0.5],[1,0.5]];portConstraint=eastwest;dropTarget=0;fontSize=12;" parent="1_YJrsmFA2tsumIKJSaq-59" vertex="1">
          <mxGeometry y="84" width="160" height="28" as="geometry"/>
        </mxCell>
        <mxCell id="1_YJrsmFA2tsumIKJSaq-75" value="" style="shape=partialRectangle;top=0;left=0;bottom=0;fillColor=none;align=left;verticalAlign=top;spacingLeft=4;spacingRight=4;overflow=hidden;rotatable=0;points=[];portConstraint=eastwest;part=1;fontSize=12;" parent="1_YJrsmFA2tsumIKJSaq-74" vertex="1" connectable="0">
          <mxGeometry width="30" height="28" as="geometry"/>
        </mxCell>
        <mxCell id="1_YJrsmFA2tsumIKJSaq-76" value="recieved_at" style="shape=partialRectangle;top=0;left=0;right=0;bottom=0;align=left;verticalAlign=top;fillColor=none;spacingLeft=34;spacingRight=4;overflow=hidden;rotatable=0;points=[[0,0.5],[1,0.5]];portConstraint=eastwest;dropTarget=0;fontSize=12;" parent="1_YJrsmFA2tsumIKJSaq-59" vertex="1">
          <mxGeometry y="112" width="160" height="28" as="geometry"/>
        </mxCell>
        <mxCell id="1_YJrsmFA2tsumIKJSaq-77" value="" style="shape=partialRectangle;top=0;left=0;bottom=0;fillColor=none;align=left;verticalAlign=top;spacingLeft=4;spacingRight=4;overflow=hidden;rotatable=0;points=[];portConstraint=eastwest;part=1;fontSize=12;" parent="1_YJrsmFA2tsumIKJSaq-76" vertex="1" connectable="0">
          <mxGeometry width="30" height="28" as="geometry"/>
        </mxCell>
        <mxCell id="1_YJrsmFA2tsumIKJSaq-80" value="completed_at" style="shape=partialRectangle;top=0;left=0;right=0;bottom=0;align=left;verticalAlign=top;fillColor=none;spacingLeft=34;spacingRight=4;overflow=hidden;rotatable=0;points=[[0,0.5],[1,0.5]];portConstraint=eastwest;dropTarget=0;fontSize=12;" parent="1_YJrsmFA2tsumIKJSaq-59" vertex="1">
          <mxGeometry y="140" width="160" height="28" as="geometry"/>
        </mxCell>
        <mxCell id="1_YJrsmFA2tsumIKJSaq-81" value="" style="shape=partialRectangle;top=0;left=0;bottom=0;fillColor=none;align=left;verticalAlign=top;spacingLeft=4;spacingRight=4;overflow=hidden;rotatable=0;points=[];portConstraint=eastwest;part=1;fontSize=12;" parent="1_YJrsmFA2tsumIKJSaq-80" vertex="1" connectable="0">
          <mxGeometry width="30" height="28" as="geometry"/>
        </mxCell>
        <mxCell id="1_YJrsmFA2tsumIKJSaq-87" value="" style="edgeStyle=entityRelationEdgeStyle;fontSize=12;html=1;endArrow=ERmany;exitX=1;exitY=0.5;exitDx=0;exitDy=0;" parent="1" source="1_YJrsmFA2tsumIKJSaq-60" target="1_YJrsmFA2tsumIKJSaq-17" edge="1">
          <mxGeometry width="100" height="100" relative="1" as="geometry">
            <mxPoint x="600" y="326" as="sourcePoint"/>
            <mxPoint x="700" y="226" as="targetPoint"/>
          </mxGeometry>
        </mxCell>
      </root>
    </mxGraphModel>
  </diagram>
</mxfile>
